<svg width="147" height="132" viewBox="0 0 147 132" fill="none" xmlns="http://www.w3.org/2000/svg">
<path d="M3.44789 86.7928L2.03873 71.9448C1.48166 66.0751 6.09789 61 11.994 61H146L144.54 86.1324C144.499 86.8263 144.391 87.5046 144.167 88.1626C141.988 94.5664 127.544 130.009 74.514 130.981C21.0075 131.961 5.92988 94.6999 3.8108 88.561C3.61073 87.9814 3.50582 87.4032 3.44789 86.7928Z" fill="black" stroke="black"/>
<path d="M4.40373 86.0373L3.0995 72.995C2.51082 67.1082 7.13366 62 13.0499 62H145L143.567 85.4037C143.523 86.1324 143.401 86.8485 143.152 87.5347C140.87 93.8158 126.484 126.596 74.5 127.5C22.0345 128.412 7.03386 93.9413 4.80929 87.898C4.587 87.2942 4.46776 86.6776 4.40373 86.0373Z" fill="#5E9950" stroke="#5E9950"/>
<path d="M73.5 0.5C113.925 0.5 146.5 26.7883 146.5 59C146.5 91.2117 113.925 117.5 73.5 117.5C33.0751 117.5 0.5 91.2117 0.5 59C0.5 26.7883 33.0751 0.5 73.5 0.5Z" fill="#6DB55A" stroke="black"/>
<path d="M19.0001 39.5001C19.0001 39.5001 5.08538 63.0111 34.1299 89.3517C35.072 90.206 36.5736 89.9488 37.1826 88.8323L76.6152 16.539C77.2847 15.3116 76.502 13.7926 75.1114 13.6485C34.2812 9.41524 19.0001 39.5001 19.0001 39.5001Z" fill="#97FB7D"/>
<path d="M95.4822 19.9359L52.7293 97.1824C52.2975 97.9626 52.4275 98.9405 53.1628 99.445C58.2995 102.97 71.6437 106.055 78.3452 103.752C78.775 103.604 79.1167 103.282 79.3308 102.881L117.569 31.3068C117.843 30.7945 117.895 30.1833 117.598 29.6844C114.754 24.9137 103.16 19.2327 97.0653 18.9826C96.3976 18.9552 95.8058 19.3512 95.4822 19.9359Z" fill="#97FB7D"/>
<path d="M19.0001 39.5001C19.0001 39.5001 5.08538 63.0111 34.1299 89.3517C35.072 90.206 36.5736 89.9488 37.1826 88.8323L76.6152 16.539C77.2847 15.3116 76.502 13.7926 75.1114 13.6485C34.2812 9.41524 19.0001 39.5001 19.0001 39.5001Z" stroke="#97FB7D" stroke-width="3"/>
<path d="M95.4822 19.9359L52.7293 97.1824C52.2975 97.9626 52.4275 98.9405 53.1628 99.445C58.2995 102.97 71.6437 106.055 78.3452 103.752C78.775 103.604 79.1167 103.282 79.3308 102.881L117.569 31.3068C117.843 30.7945 117.895 30.1833 117.598 29.6844C114.754 24.9137 103.16 19.2327 97.0653 18.9826C96.3976 18.9552 95.8058 19.3512 95.4822 19.9359Z" stroke="#97FB7D" stroke-width="3"/>
<ellipse cx="38.5426" cy="57.906" rx="5.19176" ry="12.9957" transform="rotate(-1.83869 38.5426 57.906)" fill="black"/>
<path d="M112.93 68.6023C97.3559 63.8849 50.236 66.3925 39.4544 70.3217C45.6093 65.8136 44.4271 47.5648 38.8201 45.6975C38.5947 45.6509 38.37 45.6037 38.146 45.5557C38.3773 45.577 38.602 45.6249 38.8201 45.6975C63.6921 50.8367 97.1266 47.7119 112.094 42.5425C118.634 50.3887 119.443 59.5698 112.93 68.6023Z" fill="black"/>
<path d="M74.329 65.7528C76.1557 62.7736 75.5437 51.1958 73.763 48.1208L79.4039 47.9397C81.5257 50.4111 82.5045 62.1888 79.97 65.5717C79.9877 65.5711 79.9957 65.5875 79.9947 65.619C80.7386 67.0193 82.6305 68.4365 86.7502 70.9411L82.6695 71.0721L83.7437 74.5931C82.0256 73.3784 78.2677 71.569 77.6917 69.4542C75.8867 71.5351 74.7253 73.53 73.0742 75.3165L72.9479 71.3842L69.1073 71.5075C72.1505 68.9972 73.4564 67.2622 74.329 65.7528Z" fill="black"/>
<path d="M38.8201 45.6975C44.4271 47.5648 45.6093 65.8136 39.4544 70.3217C50.236 66.3925 97.3559 63.8849 112.93 68.6023C119.443 59.5698 118.634 50.3887 112.094 42.5425C97.1266 47.7119 63.6921 50.8367 38.8201 45.6975ZM38.8201 45.6975C38.602 45.6249 38.3773 45.577 38.146 45.5557C38.37 45.6037 38.5947 45.6509 38.8201 45.6975ZM74.329 65.7528C76.1557 62.7736 75.5437 51.1958 73.763 48.1208L79.4039 47.9397C81.5257 50.4111 82.5045 62.1888 79.97 65.5717M74.329 65.7528L79.97 65.5717M74.329 65.7528C73.4564 67.2622 72.1505 68.9972 69.1073 71.5075L72.9479 71.3842L73.0742 75.3165C74.7253 73.53 75.8867 71.5351 77.6917 69.4542M79.97 65.5717C79.9781 65.5875 79.9863 65.6032 79.9947 65.619M79.97 65.5717C79.9877 65.5711 79.9957 65.5875 79.9947 65.619M79.9947 65.619C80.7386 67.0193 82.6305 68.4365 86.7502 70.9411L82.6695 71.0721L83.7437 74.5931C82.0256 73.3784 78.2677 71.569 77.6917 69.4542M79.9947 65.619C79.9839 65.9555 78.9428 68.0119 77.6917 69.4542" stroke="black"/>
<path d="M111.278 67.1715C95.8432 62.5333 49.1411 65.0115 38.4543 68.8801C44.5556 64.4428 43.3881 46.4869 37.8313 44.6508C37.6079 44.605 37.3852 44.5586 37.1632 44.5114C37.3924 44.5323 37.6152 44.5794 37.8313 44.6508C62.4813 49.7019 95.6196 46.6195 110.455 41.5295C116.936 49.2484 117.735 58.2822 111.278 67.1715Z" fill="white"/>
<path d="M37.1632 44.5114C43.2863 45.0698 44.7929 64.2703 38.4543 68.8801C49.1411 65.0115 95.8432 62.5333 111.278 67.1715C117.735 58.2822 116.936 49.2484 110.455 41.5295C95.4851 46.6656 61.8792 49.7576 37.1632 44.5114Z" stroke="black"/>
<path d="M37.1589 44.3827C37.6879 44.3657 38.2509 44.6135 38.826 45.1822C39.4022 45.7519 39.9551 46.6119 40.4426 47.7224C41.4163 49.9409 42.0863 53.0616 42.1985 56.5544C42.3107 60.0474 41.8421 63.2054 41.0127 65.4818C40.5975 66.6213 40.1008 67.5151 39.5624 68.1206C39.025 68.7249 38.479 69.0083 37.95 69.0253C37.4211 69.0421 36.8588 68.7943 36.2838 68.2258C35.7077 67.6561 35.1547 66.7961 34.6673 65.6855C33.6935 63.467 33.0234 60.3455 32.9113 56.8526C32.7992 53.3598 33.2677 50.2025 34.0972 47.9261C34.5124 46.7866 35.009 45.8929 35.5475 45.2874C36.0848 44.6832 36.63 44.3998 37.1589 44.3827Z" fill="white" stroke="black"/>
<path d="M73.0205 64.3764C74.8317 61.4446 74.2279 50.0525 72.4636 47.0272L78.0547 46.8477C80.1572 49.2791 81.1246 60.8678 78.6117 64.197C78.6292 64.1964 78.6372 64.2125 78.6362 64.2435C79.3732 65.6212 81.248 67.0153 85.3308 69.4788L81.2861 69.6086L82.35 73.0729C80.6474 71.8781 76.9231 70.0985 76.3527 68.0178C74.5631 70.0657 73.4115 72.029 71.7746 73.7872L71.6503 69.9179L67.8436 70.0401C70.8604 67.5694 72.1552 65.8619 73.0205 64.3764Z" fill="black"/>
<path d="M73.0205 64.3764C74.8317 61.4446 74.2279 50.0525 72.4636 47.0272L78.0547 46.8477C80.1572 49.2791 81.1246 60.8678 78.6117 64.197M73.0205 64.3764L78.6117 64.197M73.0205 64.3764C72.1552 65.8619 70.8604 67.5694 67.8436 70.0401L71.6503 69.9179L71.7746 73.7872C73.4115 72.029 74.5631 70.0657 76.3527 68.0178M78.6117 64.197C79.3312 65.5899 81.202 66.9875 85.3308 69.4788L81.2861 69.6086L82.35 73.0729C80.6474 71.8781 76.9231 70.0985 76.3527 68.0178M78.6117 64.197C78.8168 64.1904 77.7092 66.4654 76.3527 68.0178" stroke="black"/>
</svg>
