<svg width="147" height="134" viewBox="0 0 147 134" fill="none" xmlns="http://www.w3.org/2000/svg">
<g filter="url(#filter0_d_115_676)">
<path d="M4.40373 86.0373L3.0995 72.995C2.51082 67.1082 7.13366 62 13.0499 62H145L143.567 85.4037C143.523 86.1324 143.401 86.8485 143.152 87.5347C140.87 93.8158 126.484 126.596 74.5 127.5C22.0345 128.412 7.03386 93.9413 4.80929 87.898C4.587 87.2942 4.46776 86.6776 4.40373 86.0373Z" fill="#5E9950"/>
<path d="M4.40373 86.0373L3.0995 72.995C2.51082 67.1082 7.13366 62 13.0499 62H145L143.567 85.4037C143.523 86.1324 143.401 86.8485 143.152 87.5347C140.87 93.8158 126.484 126.596 74.5 127.5C22.0345 128.412 7.03386 93.9413 4.80929 87.898C4.587 87.2942 4.46776 86.6776 4.40373 86.0373Z" stroke="#5E9950" stroke-width="3"/>
</g>
<path d="M73.5 0.5C113.925 0.5 146.5 26.7883 146.5 59C146.5 91.2117 113.925 117.5 73.5 117.5C33.0751 117.5 0.5 91.2117 0.5 59C0.5 26.7883 33.0751 0.5 73.5 0.5Z" fill="#6DB55A" stroke="black"/>
<path d="M19.0001 39.5001C19.0001 39.5001 5.08538 63.0111 34.1299 89.3517C35.072 90.206 36.5736 89.9488 37.1826 88.8323L76.6152 16.539C77.2847 15.3116 76.502 13.7926 75.1114 13.6485C34.2812 9.41524 19.0001 39.5001 19.0001 39.5001Z" fill="#97FB7D"/>
<path d="M95.4822 19.9359L52.7293 97.1824C52.2975 97.9626 52.4275 98.9405 53.1628 99.445C58.2995 102.97 71.6437 106.055 78.3452 103.752C78.775 103.604 79.1167 103.282 79.3308 102.881L117.569 31.3068C117.843 30.7945 117.895 30.1833 117.598 29.6844C114.754 24.9137 103.16 19.2327 97.0653 18.9826C96.3976 18.9552 95.8058 19.3512 95.4822 19.9359Z" fill="#97FB7D"/>
<path d="M19.0001 39.5001C19.0001 39.5001 5.08538 63.0111 34.1299 89.3517C35.072 90.206 36.5736 89.9488 37.1826 88.8323L76.6152 16.539C77.2847 15.3116 76.502 13.7926 75.1114 13.6485C34.2812 9.41524 19.0001 39.5001 19.0001 39.5001Z" stroke="#97FB7D" stroke-width="3"/>
<path d="M95.4822 19.9359L52.7293 97.1824C52.2975 97.9626 52.4275 98.9405 53.1628 99.445C58.2995 102.97 71.6437 106.055 78.3452 103.752C78.775 103.604 79.1167 103.282 79.3308 102.881L117.569 31.3068C117.843 30.7945 117.895 30.1833 117.598 29.6844C114.754 24.9137 103.16 19.2327 97.0653 18.9826C96.3976 18.9552 95.8058 19.3512 95.4822 19.9359Z" stroke="#97FB7D" stroke-width="3"/>
<g filter="url(#filter1_d_115_676)">
<path d="M112.18 68.029C96.8113 63.3887 50.3113 65.8604 39.6711 69.7276C45.7455 65.2912 44.5805 47.3351 39.0474 45.4983C38.825 45.4525 38.6033 45.406 38.3822 45.3588C38.6105 45.3798 38.8322 45.4268 39.0474 45.4983C63.5917 50.5528 96.5864 47.475 111.357 42.3871C117.811 50.1069 118.608 59.1407 112.18 68.029Z" fill="white"/>
<path d="M38.3822 45.3588C44.4789 45.9181 45.9817 65.1186 39.6711 69.7276C50.3113 65.8604 96.8113 63.3887 112.18 68.029C118.608 59.1407 117.811 50.1069 111.357 42.3871C96.4526 47.5211 62.9922 50.6084 38.3822 45.3588Z" stroke="black"/>
<path d="M38.3777 45.2301C38.9027 45.2133 39.4623 45.4602 40.035 46.0289C40.6087 46.5986 41.1601 47.4585 41.6457 48.5694C42.6156 50.7882 43.2826 53.9095 43.3948 57.4025C43.507 60.8957 43.0415 64.0541 42.2158 66.3307C41.8025 67.4703 41.3074 68.3639 40.7714 68.9692C40.2364 69.5735 39.6938 69.8558 39.1687 69.8727C38.6438 69.8894 38.0849 69.6424 37.5124 69.0739C36.9387 68.5042 36.3873 67.6442 35.9017 66.5334C34.9318 64.3145 34.2647 61.1924 34.1525 57.6992C34.0404 54.2062 34.506 51.0485 35.3315 48.7721C35.7448 47.6324 36.24 46.7389 36.7759 46.1335C37.3108 45.5295 37.8528 45.2471 38.3777 45.2301Z" fill="white" stroke="black"/>
<path d="M74.0867 65.2287C75.8896 62.2971 75.2868 50.905 73.5298 47.8795L79.0965 47.7007C81.1901 50.1324 82.155 61.7212 79.6534 65.05C79.6709 65.0495 79.6788 65.0656 79.6778 65.0966C80.4118 66.4743 82.2787 67.8687 86.344 70.3327L82.317 70.462L83.3767 73.9264C81.6813 72.7314 77.973 70.9513 77.4048 68.8705C75.6234 70.9182 74.4771 72.8813 72.8475 74.6393L72.7233 70.77L68.9332 70.8917C71.9365 68.4213 73.2254 66.714 74.0867 65.2287Z" fill="black"/>
<path d="M74.0867 65.2287C75.8896 62.2971 75.2868 50.905 73.5298 47.8795L79.0965 47.7007C81.1901 50.1324 82.155 61.7212 79.6534 65.05M74.0867 65.2287L79.6534 65.05M74.0867 65.2287C73.2254 66.714 71.9365 68.4213 68.9332 70.8917L72.7233 70.77L72.8475 74.6393C74.4771 72.8813 75.6234 70.9182 77.4048 68.8705M79.6534 65.05C80.37 66.443 82.2329 67.8409 86.344 70.3327L82.317 70.462L83.3767 73.9264C81.6813 72.7314 77.973 70.9513 77.4048 68.8705M79.6534 65.05C79.8577 65.0435 78.7552 67.3183 77.4048 68.8705" stroke="black"/>
</g>
<defs>
<filter id="filter0_d_115_676" x="1.54883" y="60.5" width="145.046" height="72.5178" filterUnits="userSpaceOnUse" color-interpolation-filters="sRGB">
<feFlood flood-opacity="0" result="BackgroundImageFix"/>
<feColorMatrix in="SourceAlpha" type="matrix" values="0 0 0 0 0 0 0 0 0 0 0 0 0 0 0 0 0 0 127 0" result="hardAlpha"/>
<feOffset dy="4"/>
<feComposite in2="hardAlpha" operator="out"/>
<feColorMatrix type="matrix" values="0 0 0 0 0 0 0 0 0 0 0 0 0 0 0 0 0 0 1 0"/>
<feBlend mode="normal" in2="BackgroundImageFix" result="effect1_dropShadow_115_676"/>
<feBlend mode="normal" in="SourceGraphic" in2="effect1_dropShadow_115_676" result="shape"/>
</filter>
<filter id="filter1_d_115_676" x="33.636" y="41.8022" width="85.4822" height="36.0696" filterUnits="userSpaceOnUse" color-interpolation-filters="sRGB">
<feFlood flood-opacity="0" result="BackgroundImageFix"/>
<feColorMatrix in="SourceAlpha" type="matrix" values="0 0 0 0 0 0 0 0 0 0 0 0 0 0 0 0 0 0 127 0" result="hardAlpha"/>
<feOffset dx="2" dy="2"/>
<feComposite in2="hardAlpha" operator="out"/>
<feColorMatrix type="matrix" values="0 0 0 0 0 0 0 0 0 0 0 0 0 0 0 0 0 0 1 0"/>
<feBlend mode="normal" in2="BackgroundImageFix" result="effect1_dropShadow_115_676"/>
<feBlend mode="normal" in="SourceGraphic" in2="effect1_dropShadow_115_676" result="shape"/>
</filter>
</defs>
</svg>
