<svg width="351" height="256" viewBox="0 0 351 256" fill="none" xmlns="http://www.w3.org/2000/svg">
<rect x="9" y="8" width="341" height="247" rx="19" fill="black" stroke="black" stroke-width="2"/>
<rect x="1" y="2" width="344" height="247" rx="19" fill="#FFF8E9" stroke="black" stroke-width="2"/>
<mask id="path-3-inside-1_234_204" fill="white">
<path d="M0 20C0 8.95431 8.9543 0 20 0H326C337.046 0 346 8.95431 346 20V115H0V20Z"/>
</mask>
<path d="M0 20C0 8.95431 8.9543 0 20 0H326C337.046 0 346 8.95431 346 20V115H0V20Z" fill="#7DCBFB"/>
<path d="M-2 20C-2 7.84974 7.84974 -2 20 -2H326C338.15 -2 348 7.84974 348 20H344C344 10.0589 335.941 2 326 2H20C10.0589 2 2 10.0589 2 20H-2ZM346 115H0H346ZM-2 115V20C-2 7.84974 7.84974 -2 20 -2V2C10.0589 2 2 10.0589 2 20V115H-2ZM326 -2C338.15 -2 348 7.84974 348 20V115H344V20C344 10.0589 335.941 2 326 2V-2Z" fill="black" mask="url(#path-3-inside-1_234_204)"/>
<mask id="path-5-inside-2_234_204" fill="white">
<path d="M0 202H346V230C346 241.046 337.046 250 326 250H20C8.9543 250 0 241.046 0 230V202Z"/>
</mask>
<path d="M0 202H346V230C346 241.046 337.046 250 326 250H20C8.9543 250 0 241.046 0 230V202Z" fill="#7DCBFB"/>
<path d="M0 202H346H0ZM348 230C348 242.15 338.15 252 326 252H20C7.84974 252 -2 242.15 -2 230H2C2 239.941 10.0589 248 20 248H326C335.941 248 344 239.941 344 230H348ZM20 252C7.84974 252 -2 242.15 -2 230V202H2V230C2 239.941 10.0589 248 20 248V252ZM348 202V230C348 242.15 338.15 252 326 252V248C335.941 248 344 239.941 344 230V202H348Z" fill="black" mask="url(#path-5-inside-2_234_204)"/>
</svg>
