<svg width="156" height="142" viewBox="0 0 156 142" fill="none" xmlns="http://www.w3.org/2000/svg">
<path d="M14.5403 131.182V12.3282C14.5403 11.2237 15.4357 10.3282 16.5403 10.3282H136.798C137.902 10.3282 138.798 11.2237 138.798 12.3283V131.182C138.798 132.286 137.902 133.182 136.798 133.182H16.5403C15.4357 133.182 14.5403 132.286 14.5403 131.182Z" fill="#626A7C"/>
<rect x="33" y="133" width="85" height="2" fill="black" stroke="black"/>
<rect x="33.6438" y="98.5807" width="84.6465" height="17.2525" fill="#ACB4C7" fill-opacity="0.38" stroke="black"/>
<rect x="33.6438" y="122.45" width="84.6465" height="10.2323" fill="#ACB4C7" fill-opacity="0.38" stroke="black"/>
<path d="M13.5 136.813V101.5H45.7929V136.813C45.7929 139.022 44.0021 140.813 41.7929 140.813H17.5C15.2909 140.813 13.5 139.022 13.5 136.813Z" fill="black" stroke="black"/>
<path d="M111.5 136.813V101.5H143.793V136.813C143.793 139.022 142.002 140.813 139.793 140.813H115.5C113.291 140.813 111.5 139.022 111.5 136.813Z" fill="black" stroke="black"/>
<path d="M12.0833 135.5V100.187H44.3762V135.5C44.3762 137.709 42.5853 139.5 40.3762 139.5H16.0833C13.8741 139.5 12.0833 137.709 12.0833 135.5Z" fill="#778197" stroke="black"/>
<path d="M40.8662 78.0733V69.2981H113.174V78.0733H40.8662Z" fill="#A7B2C9" stroke="black"/>
<rect x="25.2197" y="10.8282" width="97.2828" height="18.6566" fill="#ACB4C7" fill-opacity="0.38" stroke="black"/>
<rect x="33.6438" y="38.207" width="84.6465" height="17.2525" fill="#ACB4C7" fill-opacity="0.38" stroke="black"/>
<path d="M9.5 4.5V77.5H41.5V4.5C41.5 2.29086 39.7091 0.5 37.5 0.5H13.5C11.2909 0.5 9.5 2.29086 9.5 4.5Z" fill="black" stroke="black"/>
<path d="M110.366 135.5V100.187H142.659V135.5C142.659 137.709 140.868 139.5 138.659 139.5H114.366C112.157 139.5 110.366 137.709 110.366 135.5Z" fill="#778197" stroke="black"/>
<path d="M8.57324 77.0203V42.6213H40.8662V77.0203H8.57324Z" fill="#778197" stroke="black"/>
<path d="M8.57324 4.5V42.6212H40.8662V4.5C40.8662 2.29086 39.0753 0.5 36.8662 0.5H12.5732C10.3641 0.5 8.57324 2.29086 8.57324 4.5Z" fill="#A7B2C9" stroke="black"/>
<path d="M40.5152 18.7527L8.57324 25.7729V42.6214H40.5152V18.7527Z" fill="#BCC2D0" stroke="black"/>
<path d="M8.57323 31.9849V77.0202H0.5V33.9849C0.5 31.7757 2.29086 29.9849 4.5 29.9849H6.57323C7.6778 29.9849 8.57323 30.8803 8.57323 31.9849Z" fill="#A7B2C9" stroke="black"/>
<path d="M146.5 34.5V79.5354H154.573V36.5C154.573 34.2909 152.782 32.5 150.573 32.5H148.5C147.395 32.5 146.5 33.3954 146.5 34.5Z" fill="black" stroke="black"/>
<path d="M145.467 31.9849V77.0202H153.54V33.9849C153.54 31.7757 151.749 29.9849 149.54 29.9849H147.467C146.362 29.9849 145.467 30.8803 145.467 31.9849Z" fill="#A7B2C9" stroke="black"/>
<path d="M114.5 4.5V77.5H146.5V4.5C146.5 2.29086 144.709 0.5 142.5 0.5H118.5C116.291 0.5 114.5 2.29086 114.5 4.5Z" fill="black" stroke="black"/>
<path d="M145.467 77.0203V42.6213H113.174V77.0203H145.467Z" fill="#778197" stroke="black"/>
<path d="M145.467 4.5V42.6212H113.174V4.5C113.174 2.29086 114.965 0.5 117.174 0.5H141.467C143.676 0.5 145.467 2.29086 145.467 4.5Z" fill="#A7B2C9" stroke="black"/>
<path d="M154.5 80.5H1.5V97.5C1.5 100.814 4.18629 103.5 7.5 103.5H148.5C151.814 103.5 154.5 100.814 154.5 97.5V80.5Z" fill="black" stroke="black"/>
<path d="M153.54 77.0201H0.5V94.1868C0.5 97.5005 3.18629 100.187 6.5 100.187H147.54C150.854 100.187 153.54 97.5005 153.54 94.1868V77.0201Z" fill="#778197" stroke="black"/>
<rect x="60" y="67" width="38" height="42" rx="5.5" fill="black" stroke="black"/>
<rect x="57.5127" y="64.8838" width="38.3131" height="32.697" rx="5.5" fill="#A7B2C9" stroke="black"/>
<path d="M63.0127 64.8838H66.3408V97.5811H63.0127C59.9752 97.5811 57.5129 95.1185 57.5127 92.0811V70.3838C57.5127 67.4412 59.8235 65.038 62.7295 64.8906L63.0127 64.8838Z" fill="#BCC2D0" stroke="black"/>
<rect x="57.5127" y="72.6062" width="38.3131" height="34.101" rx="5.5" fill="#778197" stroke="black"/>
<path d="M76.1052 81.0303C79.4425 81.0305 82.0603 83.4675 82.0603 86.3711C82.0603 88.3096 80.9038 90.0297 79.1345 90.9697L78.7166 91.1924L78.9148 91.6211L81.0574 96.2598L81.0681 96.2832L81.0818 96.3047C81.4393 96.9072 81.005 97.6697 80.3044 97.6699H73.0574C72.4006 97.6699 71.9748 96.9967 72.2224 96.417C72.2528 96.346 72.3373 96.1718 72.3855 96.0371L73.9812 91.5801L74.1511 91.1055L73.6746 90.9395C72.7259 90.6083 71.8442 90.0932 71.2029 89.3564C70.5689 88.6279 70.1492 87.6598 70.1492 86.3711C70.1492 83.4673 72.7677 81.0303 76.1052 81.0303Z" fill="#495163" stroke="black"/>
<g filter="url(#filter0_d_98_330)">
<path d="M113.174 27.8788V13.1364L145.467 2.60608V16.6465L113.174 27.8788Z" fill="#BCC2D0"/>
<path d="M113.174 27.8788V13.1364L145.467 2.60608V16.6465L113.174 27.8788Z" stroke="black"/>
</g>
<defs>
<filter id="filter0_d_98_330" x="112.674" y="1.91711" width="33.293" height="26.665" filterUnits="userSpaceOnUse" color-interpolation-filters="sRGB">
<feFlood flood-opacity="0" result="BackgroundImageFix"/>
<feColorMatrix in="SourceAlpha" type="matrix" values="0 0 0 0 0 0 0 0 0 0 0 0 0 0 0 0 0 0 127 0" result="hardAlpha"/>
<feOffset/>
<feComposite in2="hardAlpha" operator="out"/>
<feColorMatrix type="matrix" values="0 0 0 0 0 0 0 0 0 0 0 0 0 0 0 0 0 0 1 0"/>
<feBlend mode="normal" in2="BackgroundImageFix" result="effect1_dropShadow_98_330"/>
<feBlend mode="normal" in="SourceGraphic" in2="effect1_dropShadow_98_330" result="shape"/>
</filter>
</defs>
</svg>
