<svg width="72" height="68" viewBox="0 0 72 68" fill="none" xmlns="http://www.w3.org/2000/svg">
<path d="M64 0C68.4183 0 72 3.58172 72 8V60C72 64.4183 68.4183 68 64 68H16C11.7199 68 8.22523 64.6389 8.01074 60.4121L8 60H12.5C16.6421 60 20 56.6421 20 52.5C20 48.3579 16.6421 45 12.5 45H8V42H12.5C16.6421 42 20 38.6421 20 34.5C20 30.3579 16.6421 27 12.5 27H8V24H12.5C16.6421 24 20 20.6421 20 16.5C20 12.3579 16.6421 9 12.5 9H8V8C8 3.58172 11.5817 0 16 0H64ZM29 45C26.7909 45 25 46.7909 25 49C25 51.2091 26.7909 53 29 53H52C54.2091 53 56 51.2091 56 49C56 46.7909 54.2091 45 52 45H29ZM29 29C26.7909 29 25 30.7909 25 33C25 35.2091 26.7909 37 29 37H60C62.2091 37 64 35.2091 64 33C64 30.7909 62.2091 29 60 29H29ZM29 13C26.7909 13 25 14.7909 25 17C25 19.2091 26.7909 21 29 21H60C62.2091 21 64 19.2091 64 17C64 14.7909 62.2091 13 60 13H29Z" fill="white"/>
<rect y="13" width="17" height="8" rx="4" fill="white"/>
<rect y="31" width="17" height="8" rx="4" fill="white"/>
<rect y="49" width="17" height="8" rx="4" fill="white"/>
</svg>
