<svg width="147" height="132" viewBox="0 0 147 132" fill="none" xmlns="http://www.w3.org/2000/svg">
<path d="M3.44789 86.7928L2.03873 71.9448C1.48166 66.0751 6.09789 61 11.994 61H146L144.54 86.1324C144.499 86.8263 144.391 87.5046 144.167 88.1626C141.988 94.5664 127.544 130.009 74.514 130.981C21.0075 131.961 5.92988 94.6999 3.8108 88.561C3.61073 87.9814 3.50582 87.4032 3.44789 86.7928Z" fill="black" stroke="black"/>
<path d="M4.40373 86.0373L3.0995 72.995C2.51082 67.1082 7.13366 62 13.0499 62H145L143.567 85.4037C143.523 86.1324 143.401 86.8485 143.152 87.5347C140.87 93.8158 126.484 126.596 74.5 127.5C22.0345 128.412 7.03386 93.9413 4.80929 87.898C4.587 87.2942 4.46776 86.6776 4.40373 86.0373Z" fill="#5E9950" stroke="#5E9950"/>
<path d="M73.5 0.5C113.925 0.5 146.5 26.7883 146.5 59C146.5 91.2117 113.925 117.5 73.5 117.5C33.0751 117.5 0.5 91.2117 0.5 59C0.5 26.7883 33.0751 0.5 73.5 0.5Z" fill="#6DB55A" stroke="black"/>
<path d="M19.0001 39.5001C19.0001 39.5001 5.08538 63.0111 34.1299 89.3517C35.072 90.206 36.5736 89.9488 37.1826 88.8323L76.6152 16.539C77.2847 15.3116 76.502 13.7926 75.1114 13.6485C34.2812 9.41524 19.0001 39.5001 19.0001 39.5001Z" fill="#97FB7D"/>
<path d="M95.4822 19.9359L52.7293 97.1824C52.2975 97.9626 52.4275 98.9405 53.1628 99.445C58.2995 102.97 71.6437 106.055 78.3452 103.752C78.775 103.604 79.1167 103.282 79.3308 102.881L117.569 31.3068C117.843 30.7945 117.895 30.1833 117.598 29.6844C114.754 24.9137 103.16 19.2327 97.0653 18.9826C96.3976 18.9552 95.8058 19.3512 95.4822 19.9359Z" fill="#97FB7D"/>
<path d="M19.0001 39.5001C19.0001 39.5001 5.08538 63.0111 34.1299 89.3517C35.072 90.206 36.5736 89.9488 37.1826 88.8323L76.6152 16.539C77.2847 15.3116 76.502 13.7926 75.1114 13.6485C34.2812 9.41524 19.0001 39.5001 19.0001 39.5001Z" stroke="#97FB7D" stroke-width="3"/>
<path d="M95.4822 19.9359L52.7293 97.1824C52.2975 97.9626 52.4275 98.9405 53.1628 99.445C58.2995 102.97 71.6437 106.055 78.3452 103.752C78.775 103.604 79.1167 103.282 79.3308 102.881L117.569 31.3068C117.843 30.7945 117.895 30.1833 117.598 29.6844C114.754 24.9137 103.16 19.2327 97.0653 18.9826C96.3976 18.9552 95.8058 19.3512 95.4822 19.9359Z" stroke="#97FB7D" stroke-width="3"/>
<path d="M62.6853 29.1853C63.3299 23.9938 70.1751 22.5492 72.8625 27.0375L79.6556 38.3842C81.0809 40.7644 83.8603 41.9772 86.5749 41.4043L99.4495 38.6873C104.737 37.5713 108.295 43.9534 104.566 47.8646L96.1643 56.6752C94.1475 58.7905 93.7901 61.992 95.2915 64.4996L101.563 74.9733C104.286 79.521 99.6327 84.9092 94.7367 82.8784L81.972 77.5847C79.4905 76.5554 76.6319 77.1587 74.7779 79.1029L65.2409 89.1032C61.583 92.9392 55.1496 89.8906 55.8024 84.6306L57.3068 72.5159C57.6669 69.6154 56.0463 66.8313 53.3467 65.7114L42.1021 61.047C37.1101 58.9764 37.7852 51.7009 43.0731 50.5849L55.9477 47.8679C58.6623 47.295 60.7145 45.0625 61.0565 42.3094L62.6853 29.1853Z" fill="#FCFFF1" stroke="black"/>
</svg>
