<svg width="82" height="84" viewBox="0 0 82 84" fill="none" xmlns="http://www.w3.org/2000/svg">
<path d="M53.67 1.66474C54.9719 0.230259 57.3495 1.29979 57.1398 3.2256L54.4001 28.3547C54.2123 30.0773 55.1557 31.725 56.7361 32.4359L79.7884 42.8058C81.5553 43.6007 81.273 46.1923 79.3763 46.5879L54.6311 51.7479C52.9347 52.1016 51.6587 53.508 51.471 55.2307L48.7326 80.3592C48.5227 82.2853 45.9702 82.8175 45.008 81.1359L32.454 59.1971C31.5933 57.6931 29.8612 56.9139 28.1648 57.2677L3.42047 62.4281C1.52383 62.8236 0.228808 60.5606 1.53074 59.1258L18.517 40.4065C19.6815 39.1232 19.8873 37.2355 19.0266 35.7315L6.47177 13.7923C5.50951 12.1107 7.26149 10.1801 9.02839 10.9749L32.0807 21.3449C33.6611 22.0558 35.5198 21.6686 36.6843 20.3853L53.67 1.66474Z" fill="#FBD17D" stroke="black" stroke-width="2"/>
</svg>
