<svg width="84" height="82" viewBox="0 0 84 82" fill="none" xmlns="http://www.w3.org/2000/svg">
<path d="M20.4498 3.43207C20.0428 1.53811 22.2976 0.229339 23.7403 1.52208L42.5642 18.3932C43.8547 19.5498 45.7434 19.7434 47.2422 18.8734L69.1035 6.18389C70.7792 5.21127 72.7207 6.95107 71.9368 8.72285L61.7088 31.8387C61.0077 33.4234 61.4069 35.2799 62.6974 36.4364L81.5217 53.3062C82.9645 54.5993 81.9095 56.9836 79.9822 56.7856L54.8378 54.2017C53.114 54.0246 51.4714 54.978 50.7703 56.5627L40.5432 79.6781C39.7592 81.4499 37.1656 81.1834 36.7583 79.2892L31.4458 54.5765C31.0816 52.8823 29.6676 51.6149 27.9438 51.4377L2.7986 48.8544C0.871302 48.6563 0.323499 46.1075 1.99912 45.1349L23.8605 32.4454C25.3592 31.5754 26.1279 29.8394 25.7636 28.1452L20.4498 3.43207Z" fill="#97FB7D" stroke="black" stroke-width="2"/>
</svg>
