<svg width="147" height="134" viewBox="0 0 147 134" fill="none" xmlns="http://www.w3.org/2000/svg">
<g filter="url(#filter0_d_103_465)">
<path d="M4.40373 86.0373L3.0995 72.995C2.51082 67.1082 7.13366 62 13.0499 62H145L143.567 85.4037C143.523 86.1324 143.401 86.8485 143.152 87.5347C140.87 93.8158 126.484 126.596 74.5 127.5C22.0345 128.412 7.03386 93.9413 4.80929 87.898C4.587 87.2942 4.46776 86.6776 4.40373 86.0373Z" fill="#7A8178" stroke="#7A8178" stroke-width="3"/>
</g>
<path d="M73.5 0.5C113.925 0.5 146.5 26.7883 146.5 59C146.5 91.2117 113.925 117.5 73.5 117.5C33.0751 117.5 0.5 91.2117 0.5 59C0.5 26.7883 33.0751 0.5 73.5 0.5Z" fill="#8B9289" stroke="black"/>
<path d="M69.7605 27.4049C71.5458 22.4875 78.5409 22.6048 80.1604 27.5792L84.2539 40.1545C85.1129 42.7925 87.5521 44.5941 90.3261 44.6406L103.482 44.8612C108.886 44.9518 110.932 51.9663 106.425 54.9481L96.2711 61.6646C93.8335 63.2772 92.7716 66.3185 93.6764 69.0977L97.456 80.7057C99.0966 85.7457 93.3599 89.9615 89.0396 86.8906L77.7757 78.8853C75.586 77.3289 72.6648 77.2799 70.4242 78.7621L58.8983 86.3854C54.4775 89.3097 48.8854 84.904 50.694 79.9218L54.8606 68.447C55.858 65.6997 54.8986 62.6245 52.5165 60.9311L42.5942 53.878C38.1892 50.747 40.4687 43.8049 45.8724 43.8954L59.0287 44.116C61.8027 44.1625 64.3009 42.4436 65.2478 39.8358L69.7605 27.4049Z" fill="#CCCDCC" stroke="black"/>
<defs>
<filter id="filter0_d_103_465" x="1.54883" y="60.5" width="145.046" height="72.5178" filterUnits="userSpaceOnUse" color-interpolation-filters="sRGB">
<feFlood flood-opacity="0" result="BackgroundImageFix"/>
<feColorMatrix in="SourceAlpha" type="matrix" values="0 0 0 0 0 0 0 0 0 0 0 0 0 0 0 0 0 0 127 0" result="hardAlpha"/>
<feOffset dy="4"/>
<feComposite in2="hardAlpha" operator="out"/>
<feColorMatrix type="matrix" values="0 0 0 0 0 0 0 0 0 0 0 0 0 0 0 0 0 0 1 0"/>
<feBlend mode="normal" in2="BackgroundImageFix" result="effect1_dropShadow_103_465"/>
<feBlend mode="normal" in="SourceGraphic" in2="effect1_dropShadow_103_465" result="shape"/>
</filter>
</defs>
</svg>
